<?xml version="1.0" encoding="UTF-8"?>
<svg version="1.1" xmlns="http://www.w3.org/2000/svg" width="1824" height="253">
<path d="M0 0 C20.13 0 40.26 0 61 0 C61 1.65 61 3.3 61 5 C60.33613281 5.08636719 59.67226563 5.17273438 58.98828125 5.26171875 C52.97700641 6.21825737 49.80408362 7.18149408 46 12 C47.85177984 20.12027503 51.32898045 26.2304795 56 33.0625 C57.35187191 35.08573079 58.70343178 37.10917012 60.0546875 39.1328125 C60.72209961 40.12313477 61.38951172 41.11345703 62.07714844 42.13378906 C64.80789492 46.2042517 67.47055764 50.31703903 70.125 54.4375 C70.76115234 55.41891968 70.76115234 55.41891968 71.41015625 56.42016602 C74.32162581 60.91701447 77.17228998 65.45006637 80 70 C84.8529212 63.18676737 89.47156113 56.25971244 93.9375 49.1875 C94.54577637 48.22553711 95.15405273 47.26357422 95.78076172 46.27246094 C96.98087927 44.37235477 98.17981782 42.4715033 99.37744141 40.56982422 C100.7566532 38.38541504 102.14654826 36.20857558 103.54296875 34.03515625 C110.47160635 24.21271761 110.47160635 24.21271761 112.7421875 12.8984375 C111.67083583 9.90604145 110.41042796 8.24403824 107.6875 6.625 C104.8016904 5.95388149 101.93451511 5.40946722 99 5 C99 3.35 99 1.7 99 0 C110.41343668 -0.30211899 121.82591246 -0.53264502 133.24254322 -0.67355824 C138.54489336 -0.74121688 143.84449537 -0.83286025 149.14526367 -0.98071289 C154.26783091 -1.12268957 159.38776799 -1.19983687 164.51215172 -1.23340416 C166.46003308 -1.25730031 168.40778114 -1.30397135 170.35453224 -1.37449074 C186.39021164 -1.93190133 186.39021164 -1.93190133 191.60836792 2.84439087 C194.49026579 5.98618937 196.74378037 9.39041259 199 13 C200.01216006 14.30667951 201.03941575 15.6021062 202.09375 16.875 C203.28484375 18.421875 203.28484375 18.421875 204.5 20 C208.57059541 25.24447928 212.78033395 30.34447708 217.09033203 35.39331055 C220.39866701 39.27312818 223.60912205 43.21650604 226.77734375 47.2109375 C229.64146828 50.80493559 232.53829914 54.37177328 235.4375 57.9375 C236.0032373 58.63335205 236.56897461 59.3292041 237.15185547 60.04614258 C240.26184114 63.86907694 243.37741686 67.68734324 246.5 71.5 C250.19656575 76.01348636 253.88200163 80.53591005 257.5625 85.0625 C258.08070313 85.69929688 258.59890625 86.33609375 259.1328125 86.9921875 C262.17348528 90.73396779 265.19594179 94.48978161 268.20678711 98.25561523 C268.91943222 99.14683578 269.63207733 100.03805634 270.36631775 100.95628357 C271.17499046 101.9679232 271.17499046 101.9679232 272 103 C272.04657209 92.9242185 272.08199459 82.84846308 272.10362434 72.77259541 C272.11401142 68.09274271 272.12807662 63.41296427 272.15087891 58.7331543 C272.17278993 54.20735646 272.18460667 49.68162954 272.18975449 45.1557827 C272.19341776 43.43883334 272.20057002 41.72188737 272.21146011 40.00496864 C273.25988927 23.43517966 273.25988927 23.43517966 268.12478638 8.7023468 C265.24848976 6.39790133 262.88085038 6.18570205 259.25 5.75 C257.49429688 5.52570313 257.49429688 5.52570313 255.703125 5.296875 C254.81109375 5.19890625 253.9190625 5.1009375 253 5 C253 3.35 253 1.7 253 0 C269.17 0 285.34 0 302 0 C302 1.65 302 3.3 302 5 C301.19175781 5.09796875 300.38351562 5.1959375 299.55078125 5.296875 C291.41407385 6.25812432 291.41407385 6.25812432 285 11 C283.98684699 14.03945902 283.86325729 16.11459917 283.84178162 19.29606628 C283.8319928 20.3940303 283.82220398 21.49199432 283.81211853 22.62322998 C283.80636307 23.82804016 283.8006076 25.03285034 283.79467773 26.27416992 C283.78477814 27.54257217 283.77487854 28.81097443 283.76467896 30.11781311 C283.7376366 33.59684318 283.71662343 37.07588681 283.69667697 40.55496383 C283.67481329 44.19050172 283.64742647 47.82599786 283.62062073 51.46150208 C283.57069901 58.34624337 283.52575825 65.23100784 283.48259836 72.11579448 C283.43322154 79.95371101 283.37830506 87.79158564 283.32291877 95.62946165 C283.20910672 111.75293581 283.10226598 127.87644838 283 144 C280.67041016 144.16064453 280.67041016 144.16064453 278 144 C275.88025957 142.00173466 274.17192563 140.13480607 272.375 137.875 C271.85357422 137.24335938 271.33214844 136.61171875 270.79492188 135.9609375 C266.82834277 131.12621955 262.97739912 126.19569299 259.14599609 121.25341797 C255.88267637 117.06072347 252.48305729 113.0113359 249 109 C245.0317822 104.42991884 241.20629106 99.78498273 237.5 95 C233.25009642 89.51397062 228.81784129 84.22144856 224.27612305 78.9753418 C220.72438486 74.86674118 217.2911261 70.68216771 213.921875 66.421875 C209.5786484 60.94870326 205.11557838 55.5706944 200.67578125 50.17578125 C199.91652344 49.25152344 199.15726563 48.32726562 198.375 47.375 C197.70210937 46.55773437 197.02921875 45.74046875 196.3359375 44.8984375 C194.31507944 42.39095141 192.32920828 39.86225757 190.35400391 37.31884766 C189.72539459 36.50968903 189.09678528 35.7005304 188.4491272 34.86685181 C187.97091522 34.25079071 187.49270325 33.63472961 187 33 C186.95343178 43.97119908 186.91800732 54.94237422 186.89637566 65.91365242 C186.88598776 71.00936528 186.87192099 76.10500996 186.84912109 81.20068359 C186.8272131 86.12848444 186.81539393 91.05622017 186.81024551 95.98406601 C186.80658171 97.8536977 186.79942838 99.72332627 186.78853989 101.59292984 C186.72888056 112.27222062 187.07130035 122.46124397 189 133 C194.66406152 134.79078996 200.08381462 136.35693637 206 137 C206 138.32 206 139.64 206 141 C189.5 141 173 141 156 141 C156 139.68 156 138.36 156 137 C156.88042969 136.91363281 157.76085937 136.82726562 158.66796875 136.73828125 C166.06703178 136.16005993 166.06703178 136.16005993 172.25 132.5625 C174.57678808 129.15541745 175.12534364 126.62103649 175.1673584 122.5929718 C175.17884918 121.69168045 175.19033997 120.7903891 175.20217896 119.86178589 C175.20958099 118.87526031 175.21698303 117.88873474 175.22460938 116.87231445 C175.23599945 115.83134109 175.24738953 114.79036774 175.25912476 113.71784973 C175.36969444 102.83579144 175.41718903 91.95305823 175.45996094 81.07055664 C175.48224547 75.90713313 175.52403046 70.74443127 175.58300781 65.58129883 C175.65408412 59.34672043 175.69079142 53.11282186 175.70307922 46.87785912 C175.71348063 44.50359005 175.73590644 42.12934159 175.77067566 39.75530434 C175.81689382 36.42761708 175.81887985 33.10259545 175.81054688 29.7746582 C175.83414276 28.79825378 175.85773865 27.82184937 175.88204956 26.81585693 C175.80545501 20.48091644 174.33463528 17.19913218 169.96051788 12.60924053 C163.45993968 7.2734086 155.31120002 5.49859519 147.078125 5.59765625 C137.30817506 6.87469285 130.82157101 12.50840256 125 20 C123.07135209 22.74565839 121.30639337 25.57175476 119.5625 28.4375 C118.52439832 30.11127338 117.48528074 31.78441698 116.4453125 33.45703125 C115.89391602 34.34729004 115.34251953 35.23754883 114.77441406 36.15478516 C111.54051866 41.34023054 108.23599914 46.48050492 104.9375 51.625 C104.31367432 52.60009521 103.68984863 53.57519043 103.04711914 54.57983398 C102.10920532 56.0446521 102.10920532 56.0446521 101.15234375 57.5390625 C100.51167969 58.56418945 99.87101562 59.58931641 99.2109375 60.64550781 C97.62240439 63.13151202 95.89651521 65.4555194 94.0859375 67.78417969 C85.37004455 79.37589621 84.52606824 88.77964884 85.125 103 C85.15455613 104.91790057 85.17931749 106.83588119 85.19921875 108.75390625 C85.23520176 110.6068611 85.27541353 112.45973975 85.3203125 114.3125 C85.33933624 115.15329102 85.35835999 115.99408203 85.37796021 116.86035156 C85.61927621 122.36921785 86.20836957 128.13984145 89 133 C91.91496967 134.69963401 94.6914932 135.41485913 98 136 C99.06154297 136.19142578 99.06154297 136.19142578 100.14453125 136.38671875 C101.75618245 136.63946242 103.37780482 136.82742604 105 137 C105 138.32 105 139.64 105 141 C84.87 141 64.74 141 44 141 C44 139.68 44 138.36 44 137 C44.88042969 136.91363281 45.76085937 136.82726562 46.66796875 136.73828125 C54.06703178 136.16005993 54.06703178 136.16005993 60.25 132.5625 C67.92865427 121.31875625 64.67805389 95.97576764 63 83 C61.12123958 76.07317271 57.45664637 71.09822058 52.65820312 65.87646484 C49.88545437 62.73875181 47.75061873 59.20755541 45.5 55.6875 C44.52317865 54.22672105 43.54248206 52.76852846 42.55859375 51.3125 C40.12182592 47.68729374 37.70850495 44.04740159 35.30618286 40.39933777 C33.51167528 37.67521555 31.71250179 34.95418868 29.91308594 32.23330688 C29.01963972 30.8799547 28.12816746 29.52529708 27.23876953 28.16928101 C25.97841006 26.24853136 24.71067802 24.33283679 23.44140625 22.41796875 C22.88103416 21.55806335 22.88103416 21.55806335 22.30934143 20.68078613 C18.83891116 15.4732809 15.02779106 11.24746417 9.5 8.25 C8.7678125 7.84265625 8.035625 7.4353125 7.28125 7.015625 C4.86006243 5.93769903 2.60938176 5.42264634 0 5 C0 3.35 0 1.7 0 0 Z " fill="#FFFFFF" transform="translate(374,60)"/>
<path d="M0 0 C4.06046543 0.8459303 6.03184683 2.78876475 9 5.625 C9.61875 6.181875 10.2375 6.73875 10.875 7.3125 C12 8.625 12 8.625 12 10.625 C12.66 10.625 13.32 10.625 14 10.625 C14 11.285 14 11.945 14 12.625 C14.66 12.625 15.32 12.625 16 12.625 C17.515625 14.19921875 17.515625 14.19921875 19.25 16.3125 C21.46761321 18.93289474 23.63236964 21.29076167 26.3125 23.4375 C29.33416113 25.89699162 30.79672784 27.50700312 31.5 31.375 C30.46916766 38.07541019 24.57438656 42.10824073 19.58203125 46.23046875 C17.82941011 47.69300919 17.82941011 47.69300919 16.0625 50.0625 C13.64119221 53.0707915 10.89278234 55.36395987 7.9453125 57.84375 C6.15123123 59.48652321 4.84202105 61.09058966 3.4375 63.0625 C1 65.625 1 65.625 -2.1875 66.5 C-7.2289554 65.34294466 -9.98475913 62.71182595 -13.765625 59.27734375 C-14.50296875 58.73207031 -15.2403125 58.18679687 -16 57.625 C-19.68802044 58.85434015 -20.72356973 60.56359378 -23 63.625 C-21.56975239 66.83047958 -19.79566927 69.1604446 -17.4375 71.75 C-13.05949044 76.57400222 -13.05949044 76.57400222 -12.8125 80.9375 C-12.99302791 84.48788216 -13.22214521 86.57724892 -15 89.625 C-16.65261839 90.64804948 -18.31791365 91.65116054 -20 92.625 C-20 93.615 -20 94.605 -20 95.625 C-19.34 96.285 -18.68 96.945 -18 97.625 C-14.80629647 97.34320263 -12.0258314 96.2752032 -9.0625 95.125 C-0.63192256 91.92992187 -0.63192256 91.92992187 4.375 94.0625 C5.24125 94.578125 6.1075 95.09375 7 95.625 C6.58657567 100.81159613 5.2190138 102.98478999 1.4375 106.5 C0.61121094 107.28117187 -0.21507812 108.06234375 -1.06640625 108.8671875 C-1.70449219 109.44726562 -2.34257812 110.02734375 -3 110.625 C-1.84826645 113.09300047 -0.95216435 114.67283565 1 116.625 C1.125 119.25 1.125 119.25 1 121.625 C-0.65 122.285 -2.3 122.945 -4 123.625 C-5.98 121.975 -7.96 120.325 -10 118.625 C-10.54269531 119.10710937 -11.08539063 119.58921875 -11.64453125 120.0859375 C-12.35996094 120.71757812 -13.07539063 121.34921875 -13.8125 122 C-14.52019531 122.62648438 -15.22789062 123.25296875 -15.95703125 123.8984375 C-20.28384279 127.555131 -20.28384279 127.555131 -23.5625 127.875 C-26 127.625 -26 127.625 -28 125.625 C-28.93717706 119.15193984 -28.28191563 113.86480617 -24.875 108.28125 C-23.76643948 106.49509934 -23.76643948 106.49509934 -24 103.625 C-24.66 102.965 -25.32 102.305 -26 101.625 C-30.5171851 101.98186701 -32.87146009 105.177602 -35.90234375 108.2265625 C-38 109.625 -38 109.625 -40.59765625 109.4765625 C-43.96615725 108.28252475 -45.6109677 106.25293552 -48 103.625 C-50.60966048 100.95320474 -52.88855331 98.69929779 -56 96.625 C-57.98 98.605 -59.96 100.585 -62 102.625 C-60.20762009 106.68953829 -57.52984887 109.37701229 -54.4609375 112.52734375 C-52.61226439 115.18172198 -52.62197872 116.43831038 -53 119.625 C-54.46875 121.62963867 -54.46875 121.62963867 -56.5 123.54296875 C-57.221875 124.23970703 -57.94375 124.93644531 -58.6875 125.65429688 C-59.8321875 126.72260742 -59.8321875 126.72260742 -61 127.8125 C-62.50413552 129.23914205 -64.00436068 130.66992209 -65.5 132.10546875 C-66.50546875 133.04749146 -66.50546875 133.04749146 -67.53125 134.00854492 C-69.2241612 135.50769265 -69.2241612 135.50769265 -69 137.625 C-70.66666667 138.625 -72.33333333 139.625 -74 140.625 C-76.2872354 142.80331943 -78.46477204 144.91947223 -80.375 147.4375 C-83.24596466 149.53551263 -85.5813965 149.08853946 -89 148.625 C-93.49125187 145.63083209 -96.71926198 141.76409357 -100.20703125 137.67578125 C-103.7944133 133.57256649 -107.74535872 129.82128588 -111.6875 126.0625 C-114.21675225 123.39653142 -116.05005238 120.73047213 -118 117.625 C-115.80343298 112.54259838 -113.05873179 109.30776061 -109.125 105.5625 C-108.60808594 105.05912109 -108.09117188 104.55574219 -107.55859375 104.03710938 C-106.53389895 103.03951608 -105.50683656 102.04434828 -104.47729492 101.05175781 C-101.13496728 97.8237686 -97.88423433 94.59518005 -94.9375 91 C-89.7379591 84.92725376 -89.7379591 84.92725376 -85.125 84.125 C-80.75532311 84.8241483 -79.11211931 86.51288069 -76 89.625 C-76 90.285 -76 90.945 -76 91.625 C-75.34 91.625 -74.68 91.625 -74 91.625 C-73 92.625 -72 93.625 -71 94.625 C-70.01 94.955 -69.02 95.285 -68 95.625 C-66.35 93.645 -64.7 91.665 -63 89.625 C-63.44730469 89.17769531 -63.89460938 88.73039062 -64.35546875 88.26953125 C-65.61523454 87.00976546 -66.8743109 85.74930997 -68.1328125 84.48828125 C-69.59988287 83.02428006 -71.07898342 81.57233325 -72.5625 80.125 C-80.13157895 72.36184211 -80.13157895 72.36184211 -82.25 68.125 C-81.83994498 64.02444979 -79.02876258 61.28571042 -76 58.625 C-75.34 58.625 -74.68 58.625 -74 58.625 C-74 57.635 -74 56.645 -74 55.625 C-73.01 55.625 -72.02 55.625 -71 55.625 C-71 54.635 -71 53.645 -71 52.625 C-69.35546875 50.8359375 -69.35546875 50.8359375 -67.1875 49 C-66.47980469 48.38898438 -65.77210937 47.77796875 -65.04296875 47.1484375 C-63 45.625 -63 45.625 -60 44.625 C-58.79117904 42.62483534 -58.79117904 42.62483534 -58 40.625 C-57.34 40.625 -56.68 40.625 -56 40.625 C-56 39.965 -56 39.305 -56 38.625 C-48.45349199 39.21688298 -45.3886661 41.9635614 -40.625 47.5 C-40.03847656 48.18835938 -39.45195312 48.87671875 -38.84765625 49.5859375 C-36.13243342 52.58244135 -33.12997414 55.06991907 -30 57.625 C-28.96468274 56.72472412 -27.94705835 55.80406965 -26.9375 54.875 C-26.36902344 54.36453125 -25.80054688 53.8540625 -25.21484375 53.328125 C-23.77069089 51.69258905 -23.77069089 51.69258905 -24.17578125 49.5703125 C-25.43701965 46.59355079 -27.67632715 44.84305136 -30 42.625 C-32.58733791 39.7789283 -34.76352806 37.33441582 -36 33.625 C-33.13485403 28.87960199 -29.99227574 25.57695381 -25.70703125 22.11328125 C-23.98106139 20.6084883 -22.60927556 19.04085004 -21.1875 17.25 C-20.465625 16.38375 -19.74375 15.5175 -19 14.625 C-18.34 14.625 -17.68 14.625 -17 14.625 C-17 13.965 -17 13.305 -17 12.625 C-15.15452141 10.76546954 -13.16045289 9.13194803 -11.15625 7.4453125 C-9.85670786 6.34823526 -8.57792036 5.22482072 -7.34375 4.0546875 C-4.9389476 1.81617463 -3.23808048 0.6746001 0 0 Z " fill="#F8F8F8" transform="translate(177,59.375)"/>
<path d="M0 0 C8.6510546 -0.04685377 17.302054 -0.08213318 25.95320511 -0.10362434 C29.97259329 -0.11395187 33.99189312 -0.12790239 38.01123047 -0.15087891 C102.53104157 -0.50962244 102.53104157 -0.50962244 122.6484375 18.5859375 C137.90811914 34.25119207 142.66520198 52.35757307 142.47021484 73.77099609 C141.92917665 92.81148998 135.46202415 109.19279574 122 123 C107.78475525 135.48167832 89.68985205 141.20793172 70.95336914 141.11352539 C69.79603775 141.11374443 69.79603775 141.11374443 68.61532593 141.1139679 C66.08857317 141.11327638 63.56189598 141.10551994 61.03515625 141.09765625 C59.27396179 141.09578936 57.51276682 141.09436674 55.75157166 141.09336853 C51.13368273 141.08956467 46.51582564 141.07975273 41.89794922 141.06866455 C37.17871532 141.05840446 32.45947623 141.05386108 27.74023438 141.04882812 C18.49347565 141.03812842 9.24674048 141.02107778 0 141 C0 139.68 0 138.36 0 137 C0.80824219 136.89042969 1.61648438 136.78085938 2.44921875 136.66796875 C3.51785156 136.50941406 4.58648438 136.35085937 5.6875 136.1875 C6.74324219 136.03667969 7.79898437 135.88585937 8.88671875 135.73046875 C12.20705195 134.95141943 14.3117737 134.0950275 17 132 C18.64027824 128.63132772 19.25051708 125.90869074 19.25396729 122.18041992 C19.25960693 121.23838715 19.26524658 120.29635437 19.27105713 119.32577515 C19.26700867 118.30432404 19.26296021 117.28287292 19.25878906 116.23046875 C19.2622937 115.14537018 19.26579834 114.06027161 19.26940918 112.94229126 C19.27820796 109.35729567 19.27238375 105.77249759 19.265625 102.1875 C19.26697218 99.69555626 19.26891315 97.20361277 19.27142334 94.71166992 C19.27474971 88.82100706 19.26775241 82.93041582 19.2571218 77.03976345 C19.24961265 72.34451384 19.25226888 67.64934806 19.26074219 62.95410156 C19.27232977 56.47740243 19.27415565 50.00078433 19.26763153 43.52407837 C19.26629688 41.05530783 19.2679363 38.58653385 19.27259064 36.11776733 C19.27766666 32.66826215 19.26993017 29.21901706 19.25878906 25.76953125 C19.26283752 24.74808014 19.26688599 23.72662903 19.27105713 22.67422485 C19.26541748 21.73219208 19.25977783 20.7901593 19.25396729 19.81958008 C19.25321323 19.00475662 19.25245918 18.18993317 19.25168228 17.35041809 C18.86226181 13.71368645 17.86779521 10.88570841 15.296875 8.26171875 C12.30188697 6.61651274 9.63037235 6.25194841 6.25 5.8125 C4.49429687 5.57466797 4.49429687 5.57466797 2.703125 5.33203125 C1.81109375 5.22246094 0.9190625 5.11289063 0 5 C0 3.35 0 1.7 0 0 Z M41 12 C41 50.94 41 89.88 41 130 C56.50987964 135.16995988 72.47400047 134.451315 87.44140625 127.9375 C98.01851189 122.6397497 105.39131683 114.2425952 111 104 C111.39960937 103.29488281 111.79921875 102.58976562 112.2109375 101.86328125 C120.8858465 84.74175033 119.63015655 62.45170075 113.96875 44.78125 C108.49314797 30.42629332 98.67390054 19.50827396 84.69140625 13.03125 C69.38281798 7.16554999 57.19293734 8.96382425 41 12 Z " fill="#FFFFFF" transform="translate(1671,60)"/>
<path d="M0 0 C14.44795408 12.36707035 24.29835968 28.07437748 26.6875 47.1875 C27.93952265 72.23775356 24.43387612 92.93110241 7.66796875 112.55078125 C-3.74328171 124.80887776 -19.45420798 133.05262349 -36.32421875 134.1328125 C-36.98035156 134.15085938 -37.63648438 134.16890625 -38.3125 134.1875 C-38.99957031 134.22617188 -39.68664062 134.26484375 -40.39453125 134.3046875 C-58.99748261 134.90802646 -76.57551608 128.16195313 -90.09765625 115.5 C-104.37764199 101.55822445 -111.26101301 82.58135538 -111.55395508 62.81616211 C-111.62266151 41.17756342 -106.13189119 21.85567663 -90.6875 6 C-66.13069179 -18.11361409 -27.41563562 -20.96489783 0 0 Z M-70.3125 5.1875 C-72.91797462 8.36959605 -75.16466976 11.68285628 -77.3125 15.1875 C-77.70308594 15.82429688 -78.09367188 16.46109375 -78.49609375 17.1171875 C-89.22305295 36.56762714 -89.2394986 65.61058742 -84.28515625 86.92578125 C-80.11910514 100.89627394 -73.58483278 114.07079275 -60.734375 121.72265625 C-50.75197696 126.61839518 -38.93993218 127.06683343 -28.375 123.625 C-15.68882393 118.08921408 -7.65741373 109.50139901 -2.4375 96.6875 C5.84996476 73.13218908 4.93593624 43.40884465 -4.3125 20.1875 C-6.04091008 16.61242019 -7.98500561 13.39956773 -10.3125 10.1875 C-11.034375 9.135625 -11.75625 8.08375 -12.5 7 C-20.13312444 -0.63312444 -28.94988709 -4.97661103 -39.77001953 -5.19287109 C-51.49748419 -5.16539461 -61.64078818 -3.41072274 -70.3125 5.1875 Z " fill="#FFFFFF" transform="translate(797.3125,70.8125)"/>
<path d="M0 0 C35.97 0 71.94 0 109 0 C109.64109781 7.69317367 110.13784098 15.07681125 110.0625 22.75 C110.05798828 23.64976563 110.05347656 24.54953125 110.04882812 25.4765625 C110.03726159 27.65107182 110.01933803 29.82554591 110 32 C108.35 32 106.7 32 105 32 C104.65388672 30.57107422 104.65388672 30.57107422 104.30078125 29.11328125 C103.97464844 27.85902344 103.64851563 26.60476562 103.3125 25.3125 C102.99925781 24.07113281 102.68601562 22.82976562 102.36328125 21.55078125 C100.39178745 16.415859 97.82839778 13.98770684 93.02441406 11.39257812 C88.08935324 9.36459485 83.08261302 9.52114336 77.81640625 9.48828125 C76.87986206 9.47164429 75.94331787 9.45500732 74.97839355 9.43786621 C71.50665345 9.38038102 68.03453561 9.3478927 64.5625 9.3125 C56.786875 9.209375 49.01125 9.10625 41 9 C41 26.82 41 44.64 41 63 C47.290625 62.896875 53.58125 62.79375 60.0625 62.6875 C62.03484619 62.66260498 64.00719238 62.63770996 66.03930664 62.61206055 C67.62128 62.57974313 69.2032322 62.54636555 70.78515625 62.51171875 C71.59142456 62.50547485 72.39769287 62.49923096 73.22839355 62.49279785 C78.52445496 62.3592837 82.28827884 61.4661576 87 59 C90.57824289 54.77950838 91.5518422 49.37789355 92 44 C93.65 43.67 95.3 43.34 97 43 C97 59.5 97 76 97 93 C95.35 92.67 93.7 92.34 92 92 C91.85304688 91.11957031 91.70609375 90.23914063 91.5546875 89.33203125 C90.37280347 81.75529358 90.37280347 81.75529358 86.0625 75.75 C80.89814192 72.79893824 76.15615957 72.80440337 70.296875 72.68359375 C69.04019012 72.6524221 69.04019012 72.6524221 67.75811768 72.62062073 C65.08882644 72.5553745 62.41943902 72.49635642 59.75 72.4375 C57.93749016 72.39429106 56.12498995 72.35067601 54.3125 72.30664062 C49.87509791 72.19971871 45.43759932 72.09838134 41 72 C41.08436849 79.24985885 41.17923795 86.49949997 41.28752708 93.74904346 C41.33747962 97.11528716 41.38380947 100.48149963 41.421875 103.84790039 C41.46742835 107.7177998 41.52543941 111.58734025 41.5859375 115.45703125 C41.59748871 116.66647903 41.60903992 117.87592682 41.62094116 119.12202454 C41.64081085 120.24296005 41.66068054 121.36389557 41.68115234 122.51879883 C41.69447601 123.50697098 41.70779968 124.49514313 41.7215271 125.51325989 C41.83553926 128.25018811 41.83553926 128.25018811 44 131 C47.78615542 132.26205181 51.3439317 132.16239375 55.2890625 132.16796875 C56.1069223 132.17129715 56.9247821 132.17462555 57.76742554 132.17805481 C59.50070636 132.1831183 61.23399694 132.18546331 62.96728516 132.18530273 C65.59424394 132.18747457 68.22077258 132.20559546 70.84765625 132.22460938 C72.53645691 132.22754651 74.22525955 132.22952916 75.9140625 132.23046875 C77.07707382 132.24124702 77.07707382 132.24124702 78.26358032 132.25224304 C87.04811204 132.21622782 95.13977342 130.80062723 102 125 C107.15698509 119.51156408 111.07067378 113.53190949 114.48046875 106.8359375 C116 105 116 105 118.67578125 104.7265625 C119.44277344 104.81679687 120.20976563 104.90703125 121 105 C119.48335342 112.75727432 117.05720998 120.05058775 114.4375 127.5 C114.02564453 128.69109375 113.61378906 129.8821875 113.18945312 131.109375 C110.13650307 139.86349693 110.13650307 139.86349693 109 141 C107.58321089 141.09550698 106.16168759 141.12188483 104.74168396 141.12025452 C103.36390778 141.12231651 103.36390778 141.12231651 101.95829773 141.12442017 C100.43484489 141.11902725 100.43484489 141.11902725 98.88061523 141.11352539 C97.81733002 141.11367142 96.7540448 141.11381744 95.65853882 141.1139679 C92.12520342 141.11326825 88.59192 141.10547343 85.05859375 141.09765625 C82.61621632 141.09579225 80.17383851 141.09436827 77.73146057 141.09336853 C71.28865536 141.08954189 64.84587252 141.07971037 58.40307617 141.06866455 C51.83447574 141.05845356 45.2658717 141.05387158 38.69726562 141.04882812 C25.79816751 141.03808823 12.89908494 141.02120104 0 141 C0 139.68 0 138.36 0 137 C0.96421875 136.82984375 1.9284375 136.6596875 2.921875 136.484375 C4.18515625 136.24203125 5.4484375 135.9996875 6.75 135.75 C8.00296875 135.51796875 9.2559375 135.2859375 10.546875 135.046875 C14.24776961 133.92488433 15.73785495 133.09672284 18 130 C18.82157265 126.74438424 19.12654092 123.69545453 19.13371277 120.34573364 C19.13797775 119.4402478 19.14224274 118.53476196 19.14663696 117.60183716 C19.14595718 116.13047806 19.14595718 116.13047806 19.14526367 114.62939453 C19.14862228 113.58652283 19.1519809 112.54365112 19.15544128 111.46917725 C19.16493563 108.02371019 19.16689361 104.57829182 19.16796875 101.1328125 C19.17118227 98.73534119 19.17454642 96.33787007 19.17805481 93.94039917 C19.1840422 88.91517685 19.1858951 83.88997173 19.18530273 78.86474609 C19.18520111 72.42985627 19.19885551 65.99507677 19.21607494 59.56021309 C19.22720041 54.6085052 19.22922177 49.65682394 19.22869301 44.70510483 C19.22987221 42.3328806 19.23429064 39.96065567 19.24202538 37.58844376 C19.25183653 34.26868232 19.24894267 30.94915992 19.24291992 27.62939453 C19.25134918 26.16410812 19.25134918 26.16410812 19.25994873 24.66921997 C19.31954823 15.76514451 19.31954823 15.76514451 15.296875 8.13671875 C12.29798828 6.65257583 9.56292428 6.24318016 6.25 5.8125 C4.49429687 5.57466797 4.49429687 5.57466797 2.703125 5.33203125 C1.81109375 5.22246094 0.9190625 5.11289063 0 5 C0 3.35 0 1.7 0 0 Z " fill="#FFFFFF" transform="translate(1543,60)"/>
<path d="M0 0 C35.97 0 71.94 0 109 0 C109.64109781 7.69317367 110.13784098 15.07681125 110.0625 22.75 C110.05798828 23.64976563 110.05347656 24.54953125 110.04882812 25.4765625 C110.03726159 27.65107182 110.01933803 29.82554591 110 32 C108.35 32 106.7 32 105 32 C104.65388672 30.57107422 104.65388672 30.57107422 104.30078125 29.11328125 C103.97464844 27.85902344 103.64851563 26.60476562 103.3125 25.3125 C102.99925781 24.07113281 102.68601562 22.82976562 102.36328125 21.55078125 C100.39178745 16.415859 97.82839778 13.98770684 93.02441406 11.39257812 C88.08935324 9.36459485 83.08261302 9.52114336 77.81640625 9.48828125 C76.87986206 9.47164429 75.94331787 9.45500732 74.97839355 9.43786621 C71.50665345 9.38038102 68.03453561 9.3478927 64.5625 9.3125 C56.786875 9.209375 49.01125 9.10625 41 9 C41 26.82 41 44.64 41 63 C47.290625 62.896875 53.58125 62.79375 60.0625 62.6875 C62.03484619 62.66260498 64.00719238 62.63770996 66.03930664 62.61206055 C67.62128 62.57974313 69.2032322 62.54636555 70.78515625 62.51171875 C71.59142456 62.50547485 72.39769287 62.49923096 73.22839355 62.49279785 C78.52445496 62.3592837 82.28827884 61.4661576 87 59 C90.57824289 54.77950838 91.5518422 49.37789355 92 44 C93.65 43.67 95.3 43.34 97 43 C97 59.5 97 76 97 93 C95.35 92.67 93.7 92.34 92 92 C91.85304688 91.11957031 91.70609375 90.23914063 91.5546875 89.33203125 C90.37280347 81.75529358 90.37280347 81.75529358 86.0625 75.75 C80.89814192 72.79893824 76.15615957 72.80440337 70.296875 72.68359375 C69.04019012 72.6524221 69.04019012 72.6524221 67.75811768 72.62062073 C65.08882644 72.5553745 62.41943902 72.49635642 59.75 72.4375 C57.93749016 72.39429106 56.12498995 72.35067601 54.3125 72.30664062 C49.87509791 72.19971871 45.43759932 72.09838134 41 72 C41.08436849 79.24985885 41.17923795 86.49949997 41.28752708 93.74904346 C41.33747962 97.11528716 41.38380947 100.48149963 41.421875 103.84790039 C41.46742835 107.7177998 41.52543941 111.58734025 41.5859375 115.45703125 C41.59748871 116.66647903 41.60903992 117.87592682 41.62094116 119.12202454 C41.64081085 120.24296005 41.66068054 121.36389557 41.68115234 122.51879883 C41.69447601 123.50697098 41.70779968 124.49514313 41.7215271 125.51325989 C41.83553926 128.25018811 41.83553926 128.25018811 44 131 C47.78615542 132.26205181 51.3439317 132.16239375 55.2890625 132.16796875 C56.1069223 132.17129715 56.9247821 132.17462555 57.76742554 132.17805481 C59.50070636 132.1831183 61.23399694 132.18546331 62.96728516 132.18530273 C65.59424394 132.18747457 68.22077258 132.20559546 70.84765625 132.22460938 C72.53645691 132.22754651 74.22525955 132.22952916 75.9140625 132.23046875 C77.07707382 132.24124702 77.07707382 132.24124702 78.26358032 132.25224304 C87.04811204 132.21622782 95.13977342 130.80062723 102 125 C107.15698509 119.51156408 111.07067378 113.53190949 114.48046875 106.8359375 C116 105 116 105 118.67578125 104.7265625 C119.44277344 104.81679687 120.20976563 104.90703125 121 105 C119.48335342 112.75727432 117.05720998 120.05058775 114.4375 127.5 C114.02564453 128.69109375 113.61378906 129.8821875 113.18945312 131.109375 C110.13650307 139.86349693 110.13650307 139.86349693 109 141 C107.58321089 141.09550698 106.16168759 141.12188483 104.74168396 141.12025452 C103.36390778 141.12231651 103.36390778 141.12231651 101.95829773 141.12442017 C100.43484489 141.11902725 100.43484489 141.11902725 98.88061523 141.11352539 C97.81733002 141.11367142 96.7540448 141.11381744 95.65853882 141.1139679 C92.12520342 141.11326825 88.59192 141.10547343 85.05859375 141.09765625 C82.61621632 141.09579225 80.17383851 141.09436827 77.73146057 141.09336853 C71.28865536 141.08954189 64.84587252 141.07971037 58.40307617 141.06866455 C51.83447574 141.05845356 45.2658717 141.05387158 38.69726562 141.04882812 C25.79816751 141.03808823 12.89908494 141.02120104 0 141 C0 139.68 0 138.36 0 137 C0.96421875 136.82984375 1.9284375 136.6596875 2.921875 136.484375 C4.18515625 136.24203125 5.4484375 135.9996875 6.75 135.75 C8.00296875 135.51796875 9.2559375 135.2859375 10.546875 135.046875 C14.24776961 133.92488433 15.73785495 133.09672284 18 130 C18.82157265 126.74438424 19.12654092 123.69545453 19.13371277 120.34573364 C19.13797775 119.4402478 19.14224274 118.53476196 19.14663696 117.60183716 C19.14595718 116.13047806 19.14595718 116.13047806 19.14526367 114.62939453 C19.14862228 113.58652283 19.1519809 112.54365112 19.15544128 111.46917725 C19.16493563 108.02371019 19.16689361 104.57829182 19.16796875 101.1328125 C19.17118227 98.73534119 19.17454642 96.33787007 19.17805481 93.94039917 C19.1840422 88.91517685 19.1858951 83.88997173 19.18530273 78.86474609 C19.18520111 72.42985627 19.19885551 65.99507677 19.21607494 59.56021309 C19.22720041 54.6085052 19.22922177 49.65682394 19.22869301 44.70510483 C19.22987221 42.3328806 19.23429064 39.96065567 19.24202538 37.58844376 C19.25183653 34.26868232 19.24894267 30.94915992 19.24291992 27.62939453 C19.25134918 26.16410812 19.25134918 26.16410812 19.25994873 24.66921997 C19.31954823 15.76514451 19.31954823 15.76514451 15.296875 8.13671875 C12.29798828 6.65257583 9.56292428 6.24318016 6.25 5.8125 C4.49429687 5.57466797 4.49429687 5.57466797 2.703125 5.33203125 C1.81109375 5.22246094 0.9190625 5.11289063 0 5 C0 3.35 0 1.7 0 0 Z " fill="#FFFFFF" transform="translate(1413,60)"/>
<path d="M0 0 C7.69431969 -0.04675336 15.38862428 -0.08208419 23.08305454 -0.10362434 C26.65755363 -0.11397295 30.23195412 -0.12796449 33.80639648 -0.15087891 C37.26885353 -0.17293142 40.73121697 -0.18463528 44.19373894 -0.18975449 C46.12923653 -0.19513953 48.06469752 -0.21069755 50.00013733 -0.22659302 C67.32918377 -0.22873849 84.7632864 1.47531577 97.97265625 13.84765625 C105.34617149 21.72213218 108.36961212 30.51260428 108.2109375 41.19140625 C107.45421019 51.26709025 104.24380136 60.85495196 96.92578125 68.03515625 C87.73725638 75.58802747 78.7258739 77.88652311 67 79 C66.24074219 79.07347656 65.48148438 79.14695312 64.69921875 79.22265625 C59.42970018 79.45799397 54.36687371 78.41987097 49.20703125 77.48046875 C48.41735962 77.33879272 47.62768799 77.1971167 46.81408691 77.05114746 C44.87564895 76.70303478 42.93776758 76.35182522 41 76 C41.09258805 82.85042065 41.19993432 89.70049791 41.31738281 96.55053711 C41.35558779 98.87926024 41.39045526 101.20804067 41.421875 103.53686523 C41.46770962 106.8906701 41.52567425 110.24408335 41.5859375 113.59765625 C41.59748871 114.63334244 41.60903992 115.66902863 41.62094116 116.73609924 C41.73108551 122.17127319 42.04432251 126.90005961 44 132 C47.47732838 134.90487853 50.89053138 135.5557902 55.3125 136.1875 C56.38113281 136.34605469 57.44976563 136.50460938 58.55078125 136.66796875 C59.35902344 136.77753906 60.16726563 136.88710937 61 137 C61 138.32 61 139.64 61 141 C40.87 141 20.74 141 0 141 C0 139.68 0 138.36 0 137 C0.80824219 136.89042969 1.61648438 136.78085938 2.44921875 136.66796875 C3.51785156 136.50941406 4.58648438 136.35085937 5.6875 136.1875 C6.74324219 136.03667969 7.79898438 135.88585937 8.88671875 135.73046875 C12.23831725 134.94408366 14.31958035 134.1640516 17 132 C19.4971597 126.55766747 19.28924355 121.1961196 19.2746582 115.33227539 C19.27976913 114.26975052 19.28488007 113.20722565 19.29014587 112.11250305 C19.30402227 108.60749649 19.30308662 105.10268698 19.30078125 101.59765625 C19.30466907 99.15677314 19.30900392 96.71589071 19.31376648 94.27500916 C19.32122437 89.1615886 19.32094037 84.0482371 19.31567383 78.93481445 C19.30987802 72.38666773 19.32681528 65.83880375 19.3500185 59.29070377 C19.36475943 54.25062918 19.36562706 49.21062265 19.36250877 44.17053032 C19.36302174 41.75643796 19.36825487 39.34234177 19.37832069 36.92827034 C19.39067517 33.55103364 19.38389896 30.17434722 19.37231445 26.79711914 C19.37995819 25.8031311 19.38760193 24.80914307 19.39547729 23.78503418 C19.35238642 18.09323328 18.78609366 14.0081121 16 9 C11.17297047 5.46802717 5.7956681 5.3321628 0 5 C0 3.35 0 1.7 0 0 Z M41 11 C41 30.14 41 49.28 41 69 C54.30275585 71.66055117 62.10312921 72.37950327 73.6875 65.375 C81.07278647 57.79011119 83.30342421 50.24789475 83.31469727 39.92553711 C83.13000083 30.85136855 80.40377261 23.25864944 74.01953125 16.7265625 C64.27915266 8.39919822 53.08220936 8.58355813 41 11 Z " fill="#FFFFFF" transform="translate(835,60)"/>
<path d="M0 0 C2.62358016 0.81650125 4.74201916 0.91119221 7.47265625 0.76953125 C8.79265625 -1.54046875 10.11265625 -3.85046875 11.47265625 -6.23046875 C13.12265625 -6.23046875 14.77265625 -6.23046875 16.47265625 -6.23046875 C16.47265625 10.26953125 16.47265625 26.76953125 16.47265625 43.76953125 C14.82265625 43.76953125 13.17265625 43.76953125 11.47265625 43.76953125 C11.18132812 42.58617187 10.89 41.4028125 10.58984375 40.18359375 C7.54595394 28.26526465 4.37888829 16.81663503 -6.52734375 9.76953125 C-15.41952791 4.59180376 -24.61595561 2.27975774 -34.77734375 4.76953125 C-40.66837046 6.86601579 -45.43362525 10.3484226 -48.72265625 15.72265625 C-51.44162251 21.94443489 -50.57442894 27.02716527 -48.21484375 33.20703125 C-40.47371041 45.11236045 -23.42710584 51.56331608 -11.45410156 58.15380859 C3.31651405 66.30795725 18.60813725 74.77941761 24.34765625 91.70703125 C27.05295485 102.23663657 25.49103109 112.58876674 20.15234375 122.12890625 C12.7760935 132.52820988 2.80094878 138.80556507 -9.71484375 141.14453125 C-22.5624367 142.6862424 -33.47667848 140.95822848 -45.61352539 136.85351562 C-50.48331285 135.22877789 -54.38883696 134.445357 -59.52734375 134.76953125 C-60.51734375 137.07953125 -61.50734375 139.38953125 -62.52734375 141.76953125 C-64.17734375 141.76953125 -65.82734375 141.76953125 -67.52734375 141.76953125 C-67.52734375 125.59953125 -67.52734375 109.42953125 -67.52734375 92.76953125 C-65.87734375 92.76953125 -64.22734375 92.76953125 -62.52734375 92.76953125 C-62.09035156 94.43628906 -62.09035156 94.43628906 -61.64453125 96.13671875 C-57.23131629 112.44936097 -57.23131629 112.44936097 -45.84765625 124.45703125 C-34.98167496 130.60344491 -24.12240657 133.49155053 -11.7734375 130.48828125 C-5.1315821 128.36288752 -0.47680111 124.48166589 3.47265625 118.76953125 C5.42575316 112.91024053 5.50952841 106.19593797 2.91015625 100.51953125 C-1.5901398 93.08840851 -7.9004499 88.55874721 -15.40234375 84.45703125 C-17.09139102 83.50434081 -18.78018804 82.55120659 -20.46875 81.59765625 C-21.31453613 81.12521484 -22.16032227 80.65277344 -23.03173828 80.16601562 C-62.48878707 58.08674356 -62.48878707 58.08674356 -68.11328125 40.98828125 C-69.68612471 32.56021442 -69.4274699 23.43529645 -65.52734375 15.76953125 C-65.19863281 15.11855469 -64.86992187 14.46757813 -64.53125 13.796875 C-58.96144873 3.79435992 -50.28274804 -1.84854001 -39.52734375 -5.23046875 C-25.52533988 -8.11161502 -13.02013055 -5.24340099 0 0 Z " fill="#FFFFFF" transform="translate(336.52734375,63.23046875)"/>
<path d="M0 0 C0.81082031 0.65484375 1.62164062 1.3096875 2.45703125 1.984375 C6.4633817 5.34406035 9.25396982 8.5641051 12 13 C12.66 13.33 13.32 13.66 14 14 C14.33 14.99 14.66 15.98 15 17 C15.66 17.33 16.32 17.66 17 18 C17 18.99 17 19.98 17 21 C17.66 21 18.32 21 19 21 C19.33 21.99 19.66 22.98 20 24 C20.66 24.66 21.32 25.32 22 26 C36.64828258 49.12713084 40.57319857 76.98809227 36.4921875 103.73828125 C36.11455721 106.24083118 35.86407332 108.66873355 35.6875 111.1875 C34.85339298 115.81300259 33.15849773 119.72050663 31.27734375 124.01171875 C29.59714266 127.94246441 28.28993094 131.92653388 27 136 C26.34 136 25.68 136 25 136 C24.74992188 136.86496094 24.49984375 137.72992188 24.2421875 138.62109375 C18.02604344 155.52978749 -0.59411094 173.40136424 -16 182 C-16.66 182 -17.32 182 -18 182 C-18.33 182.66 -18.66 183.32 -19 184 C-20.60717773 184.91381836 -20.60717773 184.91381836 -22.68359375 185.83984375 C-23.44091797 186.17927002 -24.19824219 186.51869629 -24.97851562 186.8684082 C-25.78998047 187.2212085 -26.60144531 187.57400879 -27.4375 187.9375 C-28.26572266 188.2986792 -29.09394531 188.6598584 -29.94726562 189.03198242 C-50.83837836 198.01901747 -73.65434033 200.62624985 -96 196 C-97.4540625 195.70802734 -97.4540625 195.70802734 -98.9375 195.41015625 C-109.78160847 192.97311591 -119.82659024 188.37678064 -130 184 C-130 183.34 -130 182.68 -130 182 C-131.051875 181.62875 -131.051875 181.62875 -132.125 181.25 C-137.88593232 178.74524682 -142.41187279 174.90424425 -146.9375 170.625 C-150.25342254 167.52969431 -153.57422212 164.46445032 -157.0625 161.5625 C-159.51347275 159.42441739 -161.2374648 157.68576792 -163 155 C-163.721875 153.96875 -164.44375 152.9375 -165.1875 151.875 C-167 149 -167 149 -167 147 C-167.66 147 -168.32 147 -169 147 C-170.33819498 144.3773768 -171.6707151 141.75213401 -173 139.125 C-173.57234375 138.00544922 -173.57234375 138.00544922 -174.15625 136.86328125 C-174.69765625 135.79013672 -174.69765625 135.79013672 -175.25 134.6953125 C-175.58515625 134.03547363 -175.9203125 133.37563477 -176.265625 132.69580078 C-177 131 -177 131 -177 129 C-177.66 128.67 -178.32 128.34 -179 128 C-179.78125 125.92578125 -179.78125 125.92578125 -180.5 123.3125 C-181.2801974 120.53280172 -182.06113885 117.83456545 -183.0625 115.125 C-189.42455417 93.91815277 -189.22823771 68.91058507 -180.8671875 48.33203125 C-179.96407483 45.90339042 -179.44371388 43.54909095 -179 41 C-178.34 41 -177.68 41 -177 41 C-176.95875 40.21625 -176.9175 39.4325 -176.875 38.625 C-175.63646431 33.49392356 -173.04525823 29.28920987 -170 25 C-169.01 24.505 -169.01 24.505 -168 24 C-167.70609375 23.25492188 -167.4121875 22.50984375 -167.109375 21.7421875 C-165.87764522 18.69755967 -164.33503767 16.65452244 -162.25 14.125 C-161.59515625 13.32320312 -160.9403125 12.52140625 -160.265625 11.6953125 C-159.51796875 10.80585937 -158.7703125 9.91640625 -158 9 C-157.34330322 8.1814856 -157.34330322 8.1814856 -156.67333984 7.34643555 C-141.87875653 -10.69616547 -115.21878443 -24.49601344 -92 -27 C-56.63702789 -29.91415502 -27.99291573 -22.68706896 0 0 Z M-107 -16 C-107 -15.34 -107 -14.68 -107 -14 C-107.99 -14.33 -108.98 -14.66 -110 -15 C-112.51560731 -14.15897428 -112.51560731 -14.15897428 -115.1875 -12.8125 C-116.156875 -12.35101562 -117.12625 -11.88953125 -118.125 -11.4140625 C-119.07375 -10.94742187 -120.0225 -10.48078125 -121 -10 C-121.825 -9.59523438 -122.65 -9.19046875 -123.5 -8.7734375 C-125.33908872 -7.86046131 -127.17048676 -6.93201618 -129 -6 C-129 -5.34 -129 -4.68 -129 -4 C-129.58007812 -3.89171875 -130.16015625 -3.7834375 -130.7578125 -3.671875 C-133.28723728 -2.9139289 -134.79770997 -1.86845087 -136.875 -0.25 C-137.56335938 0.28625 -138.25171875 0.8225 -138.9609375 1.375 C-139.63382813 1.91125 -140.30671875 2.4475 -141 3 C-141.61101562 3.474375 -142.22203125 3.94875 -142.8515625 4.4375 C-144.27750511 5.57284767 -145.64517913 6.78066122 -147 8 C-147 8.66 -147 9.32 -147 10 C-147.598125 10.268125 -148.19625 10.53625 -148.8125 10.8125 C-151.01819033 12.00987475 -152.43583187 13.04478984 -154 15 C-154 15.99 -154 16.98 -154 18 C-154.66 18 -155.32 18 -156 18 C-156.99 20.475 -156.99 20.475 -158 23 C-158.66 23 -159.32 23 -160 23 C-167.03957052 33.23016723 -172.40806971 44.12539241 -176 56 C-176.50853516 57.65902344 -176.50853516 57.65902344 -177.02734375 59.3515625 C-183.45167067 85.10808057 -179.22837369 113.84304 -166.37890625 136.91015625 C-160.11071356 147.20273132 -152.17606884 157.14311231 -143 165 C-142.34 165 -141.68 165 -141 165 C-140.67 165.99 -140.34 166.98 -140 168 C-139.01 168 -138.02 168 -137 168 C-136.67 168.99 -136.34 169.98 -136 171 C-133.81576487 172.57085403 -131.68784303 173.95671526 -129.375 175.3125 C-128.70202881 175.70912842 -128.02905762 176.10575684 -127.33569336 176.5144043 C-102.38845478 190.83924749 -73.95396912 194.65611875 -46.19140625 187.22265625 C-26.41688822 181.63351006 -8.55421377 170.54060717 5 155 C5.33 154.33484375 5.66 153.6696875 6 152.984375 C7.25956167 150.48493231 9.01606184 148.96539668 11 147 C27.40594272 124.02433973 34.48495044 95.30615003 30.125 67.3125 C29.41116897 63.39775996 28.30210315 59.75845157 27 56 C26.65582031 54.94683594 26.31164062 53.89367187 25.95703125 52.80859375 C23.068442 44.30056467 19.48212983 36.775914 15 29 C14.34 29 13.68 29 13 29 C12.95875 28.319375 12.9175 27.63875 12.875 26.9375 C11.61078168 22.69333851 8.95684634 20.21540465 6 17 C4.83250337 15.62570464 3.66584483 14.2506969 2.5 12.875 C-0.43487882 9.51807002 -3.51450063 6.77255632 -7 4 C-7.556875 3.401875 -8.11375 2.80375 -8.6875 2.1875 C-10.07577201 0.66454334 -10.07577201 0.66454334 -13 1 C-13 0.34 -13 -0.32 -13 -1 C-14.32 -1.33 -15.64 -1.66 -17 -2 C-17 -2.66 -17 -3.32 -17 -4 C-17.7734375 -4.38671875 -18.546875 -4.7734375 -19.34375 -5.171875 C-20.3853125 -5.69265625 -21.426875 -6.2134375 -22.5 -6.75 C-23.59957031 -7.29785156 -24.69914063 -7.84570312 -25.83203125 -8.41015625 C-27.64846091 -9.32173069 -29.46104742 -10.24127352 -31.26171875 -11.18359375 C-54.02915684 -23.05221766 -82.78975009 -23.08901435 -107 -16 Z " fill="#E9EAEA" transform="translate(207,40)"/>
<path d="M0 0 C34.65 0 69.3 0 105 0 C105.79729263 3.98646316 106.18297174 7.37243393 106.31640625 11.39453125 C106.35830078 12.59658203 106.40019531 13.79863281 106.44335938 15.03710938 C106.48267578 16.28298828 106.52199219 17.52886719 106.5625 18.8125 C106.62727539 20.71032227 106.62727539 20.71032227 106.69335938 22.64648438 C106.7992447 25.76421889 106.90132405 28.88203035 107 32 C105.35 32 103.7 32 102 32 C101.54560547 30.80503906 101.54560547 30.80503906 101.08203125 29.5859375 C97.07610938 19.3202185 97.07610938 19.3202185 89 12.1875 C83.28290109 9.92448168 77.83420645 9.80297118 71.76171875 9.68359375 C70.98042603 9.66494263 70.1991333 9.6462915 69.39416504 9.6270752 C66.49205192 9.55908002 63.58976354 9.49873885 60.6875 9.4375 C50.9421875 9.2209375 50.9421875 9.2209375 41 9 C41 26.82 41 44.64 41 63 C45.805625 62.896875 50.61125 62.79375 55.5625 62.6875 C57.06498291 62.66260498 58.56746582 62.63770996 60.11547852 62.61206055 C61.31615967 62.57894775 62.51684082 62.54583496 63.75390625 62.51171875 C64.97408447 62.48553467 66.1942627 62.45935059 67.45141602 62.43237305 C71.96270921 61.88269983 76.47067838 60.84642506 79.48828125 57.203125 C79.76027344 56.55859375 80.03226563 55.9140625 80.3125 55.25 C80.61285156 54.55390625 80.91320313 53.8578125 81.22265625 53.140625 C82.31971906 50.11956761 83.22026305 47.11894782 84 44 C85.65 44 87.3 44 89 44 C89 59.84 89 75.68 89 92 C87.35 92 85.7 92 84 92 C83.84144531 91.19175781 83.68289063 90.38351563 83.51953125 89.55078125 C81.73737731 81.0604675 81.73737731 81.0604675 76 75 C72.52482871 73.84160957 69.3272998 73.77198782 65.70703125 73.68359375 C65.00100266 73.66281265 64.29497406 73.64203156 63.56755066 73.62062073 C61.31596449 73.55532509 59.06426338 73.49633353 56.8125 73.4375 C55.2844934 73.39429575 53.75649836 73.35068084 52.22851562 73.30664062 C48.48579438 73.19966426 44.7429577 73.09834078 41 73 C41.09235286 80.5990995 41.19966999 88.19788216 41.31738281 95.79663086 C41.35566099 98.38154305 41.39051586 100.96650829 41.421875 103.55151367 C41.46755006 107.26760823 41.5255417 110.98333789 41.5859375 114.69921875 C41.59748871 115.85459641 41.60903992 117.00997406 41.62094116 118.20036316 C41.64081085 119.28110611 41.66068054 120.36184906 41.68115234 121.4753418 C41.69447601 122.42354294 41.70779968 123.37174408 41.7215271 124.34867859 C42.02635501 127.25092427 42.69446669 129.39429878 44 132 C49.06875646 135.50913909 55.02707282 136.09662133 61 137 C61 138.32 61 139.64 61 141 C40.87 141 20.74 141 0 141 C0 139.68 0 138.36 0 137 C0.80824219 136.89042969 1.61648438 136.78085938 2.44921875 136.66796875 C3.51785156 136.50941406 4.58648438 136.35085937 5.6875 136.1875 C6.74324219 136.03667969 7.79898437 135.88585937 8.88671875 135.73046875 C12.27329553 134.93587671 14.32484294 134.23476343 17 132 C19.24161112 126.11079898 19.29040581 120.55936951 19.2746582 114.31054688 C19.27976913 113.25762955 19.28488007 112.20471222 19.29014587 111.11988831 C19.30400236 107.65278378 19.30308829 104.18587886 19.30078125 100.71875 C19.30466983 98.30171637 19.30900484 95.88468343 19.31376648 93.46765137 C19.32121984 88.40728538 19.32094341 83.34698918 19.31567383 78.28662109 C19.309875 71.80688324 19.32682477 65.32743083 19.3500185 58.84774017 C19.36475879 53.85827977 19.36562721 48.86888811 19.36250877 43.87940979 C19.36302165 41.49043715 19.36825314 39.10146063 19.37832069 36.71250916 C19.39067558 33.37130219 19.38389903 30.03065138 19.37231445 26.68945312 C19.37995819 25.70638687 19.38760193 24.72332062 19.39547729 23.71046448 C19.35219619 18.05437253 18.81201138 13.95973739 16 9 C10.89993484 5.9399609 5.87088682 5.38606739 0 5 C0 3.35 0 1.7 0 0 Z " fill="#FFFFFF" transform="translate(1294,60)"/>
<path d="M0 0 C2.56536492 0.99210721 2.56536492 0.99210721 5.26953125 0.1171875 C7.78926353 -1.3842968 8.40744969 -2.15061359 9.36328125 -4.8671875 C9.75515625 -5.9809375 10.14703125 -7.0946875 10.55078125 -8.2421875 C12.20078125 -8.2421875 13.85078125 -8.2421875 15.55078125 -8.2421875 C18.79456853 26.21183834 18.79456853 26.21183834 18.55078125 40.7578125 C17.23078125 40.7578125 15.91078125 40.7578125 14.55078125 40.7578125 C13.91462891 39.21673828 13.91462891 39.21673828 13.265625 37.64453125 C7.24544252 23.29885997 1.53423419 11.08379158 -13.47265625 4.4140625 C-26.08061253 -0.12350531 -38.58961293 -0.58787359 -50.99487305 5.04760742 C-63.01044899 10.94394704 -69.80669991 19.47052067 -74.70703125 31.96484375 C-75.76600095 35.20842872 -76.65286669 38.44034586 -77.44921875 41.7578125 C-77.67480469 42.69238281 -77.90039062 43.62695312 -78.1328125 44.58984375 C-82.12708619 65.16723996 -81.44142716 90.24359418 -69.81640625 108.29296875 C-61.79559782 119.06531012 -51.59385246 125.88421432 -38.12866211 127.98486328 C-24.33494736 129.71236111 -10.9323587 127.833702 0.42578125 119.3828125 C6.92815215 113.93655917 12.20102369 107.30253309 17.55078125 100.7578125 C19.53078125 101.2528125 19.53078125 101.2528125 21.55078125 101.7578125 C20.39710572 111.63615923 9.86657833 121.64171205 2.55078125 127.7578125 C-7.74881018 135.15239096 -19.77564889 139.203645 -32.44921875 139.7578125 C-33.12726563 139.79777344 -33.8053125 139.83773437 -34.50390625 139.87890625 C-53.60340076 140.47357916 -70.93805245 134.27418665 -84.98046875 121.4453125 C-99.60404889 106.22076332 -106.00404162 86.18151057 -105.63671875 65.3359375 C-104.61474854 45.83333941 -98.50064902 28.44706931 -85.44921875 13.7578125 C-84.89492187 13.12101562 -84.340625 12.48421875 -83.76953125 11.828125 C-62.21754369 -11.37377548 -27.06739637 -13.39970117 0 0 Z " fill="#FFFFFF" transform="translate(1262.44921875,65.2421875)"/>
<path d="M0 0 C37.95 0 75.9 0 115 0 C115.57900073 5.21100656 116.12606729 10.15412174 116.31640625 15.34765625 C116.35830078 16.44658203 116.40019531 17.54550781 116.44335938 18.67773438 C116.48267578 19.79470703 116.52199219 20.91167969 116.5625 22.0625 C116.60568359 23.21427734 116.64886719 24.36605469 116.69335938 25.55273438 C116.79850852 28.36839491 116.90065393 31.18412976 117 34 C115.35 34 113.7 34 112 34 C111.5978125 32.4840625 111.5978125 32.4840625 111.1875 30.9375 C108.93005154 23.17752092 106.24583564 17.89959507 99.4375 13.25 C95.27977219 11.11783189 91.56861358 10.84304066 86.921875 10.68359375 C85.76171875 10.64169922 84.6015625 10.59980469 83.40625 10.55664062 C82.1996875 10.51732422 80.993125 10.47800781 79.75 10.4375 C78.52796875 10.39431641 77.3059375 10.35113281 76.046875 10.30664062 C73.0313608 10.20062645 70.01576552 10.09856064 67 10 C67.08402222 24.5952938 67.17920031 39.19047959 67.28752708 53.78561401 C67.33757133 60.56294516 67.3840149 67.34026471 67.421875 74.11767578 C67.45843209 80.65999884 67.50516493 87.20220368 67.55806351 93.74441528 C67.57657533 96.23859391 67.5916951 98.73280014 67.60334396 101.22702026 C67.6202611 104.72439733 67.64931009 108.22148133 67.68115234 111.71875 C67.68331253 112.74662125 67.68547272 113.77449249 67.68769836 114.83351135 C67.75002932 124.2777661 67.75002932 124.2777661 71.25 132.875 C76.06462083 135.97011339 81.44522028 136.42536762 87 137 C87 138.32 87 139.64 87 141 C67.2 141 47.4 141 27 141 C27 139.68 27 138.36 27 137 C27.80824219 136.90203125 28.61648438 136.8040625 29.44921875 136.703125 C37.58592615 135.74187568 37.58592615 135.74187568 44 131 C44.9712688 128.0861936 45.1356466 126.19379264 45.15821838 123.15950012 C45.1680072 122.16250595 45.17779602 121.16551178 45.18788147 120.13830566 C45.19363693 119.04570435 45.1993924 117.95310303 45.20532227 116.82739258 C45.21522186 115.67603317 45.22512146 114.52467377 45.23532104 113.33842468 C45.26696802 109.52381462 45.29170621 105.7091921 45.31640625 101.89453125 C45.33697301 99.25322644 45.3579694 96.61192494 45.37937927 93.97062683 C45.42929209 87.72337523 45.47423615 81.47609813 45.51740164 75.22879666 C45.56678607 68.1163775 45.62169973 61.00400441 45.67708123 53.89162982 C45.7908796 39.26113017 45.89772332 24.63058467 46 10 C41.97863607 10.11059313 37.95814845 10.2410528 33.9375 10.375 C32.80376953 10.4059375 31.67003906 10.436875 30.50195312 10.46875 C20.11919728 10.62340143 20.11919728 10.62340143 11.25 15.375 C10.5075 16.24125 9.765 17.1075 9 18 C8.49339844 18.58523437 7.98679687 19.17046875 7.46484375 19.7734375 C5.65077567 22.53082099 5.04529801 25.03964681 4.3125 28.25 C4.06113281 29.32765625 3.80976562 30.4053125 3.55078125 31.515625 C3.36902344 32.33546875 3.18726563 33.1553125 3 34 C1.35 34 -0.3 34 -2 34 C-2.13820074 26.44502597 -1.91867948 18.92032782 -1.5625 11.375 C-1.50364624 10.04130371 -1.50364624 10.04130371 -1.44360352 8.68066406 C-1.40162842 7.8450293 -1.35965332 7.00939453 -1.31640625 6.1484375 C-1.27974854 5.39739746 -1.24309082 4.64635742 -1.20532227 3.87255859 C-1 2 -1 2 0 0 Z " fill="#FFFFFF" transform="translate(958,60)"/>
<path d="M0 0 C20.13 0 40.26 0 61 0 C61 1.65 61 3.3 61 5 C59.67935547 5.12955078 59.67935547 5.12955078 58.33203125 5.26171875 C50.93296822 5.83994007 50.93296822 5.83994007 44.75 9.4375 C42.36574372 12.92873241 41.8744503 15.49159879 41.85955811 19.61703491 C41.85384796 20.56473251 41.84813782 21.51243011 41.84225464 22.48884583 C41.84113678 23.52683823 41.84001892 24.56483063 41.83886719 25.63427734 C41.83390228 26.72883743 41.82893738 27.82339752 41.82382202 28.9511261 C41.80919245 32.57940291 41.8023974 36.20763602 41.796875 39.8359375 C41.79112465 42.3531596 41.7853669 44.87038169 41.77960205 47.38760376 C41.77043417 51.99333448 41.76413447 56.59905262 41.7611053 61.20479143 C41.7566244 67.98021983 41.73907322 74.75544651 41.7101047 81.53081357 C41.68587266 87.40250378 41.67816049 93.27412673 41.67642975 99.14586258 C41.67339935 101.64255497 41.66535786 104.13924643 41.65224457 106.63590622 C41.63521858 110.12640484 41.63705605 113.61641047 41.64355469 117.10693359 C41.6343399 118.14087753 41.62512512 119.17482147 41.6156311 120.24009705 C41.62042271 127.12475105 41.62042271 127.12475105 45 133 C46.98640821 134.19048668 46.98640821 134.19048668 49.25 134.75 C50.03761719 134.97816406 50.82523438 135.20632812 51.63671875 135.44140625 C54.75806265 136.17917845 57.81083616 136.66072725 61 137 C61 138.32 61 139.64 61 141 C40.87 141 20.74 141 0 141 C0 139.68 0 138.36 0 137 C0.81984375 136.87882813 1.6396875 136.75765625 2.484375 136.6328125 C3.56203125 136.46523437 4.6396875 136.29765625 5.75 136.125 C6.81734375 135.96257812 7.8846875 135.80015625 8.984375 135.6328125 C11.78225176 135.04569328 13.60258628 134.50829293 16 133 C19.47479313 126.99437522 19.42609761 120.00199585 19.37231445 113.26708984 C19.37596512 112.2333876 19.37961578 111.19968536 19.38337708 110.13465881 C19.39143377 106.74324736 19.37791466 103.352321 19.36328125 99.9609375 C19.36276214 97.5916036 19.36328181 95.22226927 19.36479187 92.85293579 C19.36470237 87.89863618 19.35431664 82.94450005 19.33618164 77.99023438 C19.31347068 71.6473577 19.31295736 65.30471914 19.31969929 58.96181297 C19.3230438 54.07357678 19.31640044 49.18539466 19.30657005 44.29716873 C19.30272799 41.9584443 19.30156571 39.61971384 19.3031559 37.28098679 C19.30352764 34.01191532 19.29087622 30.74314692 19.2746582 27.47412109 C19.27713562 26.51289841 19.27961304 25.55167572 19.28216553 24.56132507 C19.24083477 19.3288861 18.81735303 14.92704827 17 10 C12.50250612 5.79371076 5.89534437 5.27293261 0 5 C0 3.35 0 1.7 0 0 Z " fill="#FFFFFF" transform="translate(1084,60)"/>
<path d="M0 0 C2.17779782 3.26669673 2.50762687 5.2250161 3.0625 9.0625 C3.59062211 13.16946658 3.59062211 13.16946658 5 17 C7.97 15.35 10.94 13.7 14 12 C13 16 13 16 10 22 C15.28 22.99 20.56 23.98 26 25 C26 25.66 26 26.32 26 27 C24.08487728 27.50588147 22.16783078 28.00448391 20.25 28.5 C19.18265625 28.7784375 18.1153125 29.056875 17.015625 29.34375 C14 30 14 30 10 30 C10.66 31.11375 11.32 32.2275 12 33.375 C14 36.75 14 36.75 14 39 C12.9275 38.690625 11.855 38.38125 10.75 38.0625 C8.17027761 37.33157866 5.60203567 36.63899548 3 36 C2.90912109 37.26457031 2.90912109 37.26457031 2.81640625 38.5546875 C2.73261719 39.65039062 2.64882812 40.74609375 2.5625 41.875 C2.48128906 42.96554688 2.40007812 44.05609375 2.31640625 45.1796875 C2 48 2 48 1 50 C0.34 50 -0.32 50 -1 50 C-2.485 42.575 -2.485 42.575 -4 35 C-6.97 36.65 -9.94 38.3 -13 40 C-13 35.28093812 -11.71245796 33.72962969 -9 30 C-9.99 30.33 -10.98 30.66 -12 31 C-13.68272986 30.37498605 -15.34630643 29.69822617 -17 29 C-19.65335778 28.26514812 -22.32032637 27.63585476 -25 27 C-24.505 25.515 -24.505 25.515 -24 24 C-19.71 23.34 -15.42 22.68 -11 22 C-11 18.44044831 -11.89341295 17.72100827 -14 15 C-14 14.34 -14 13.68 -14 13 C-10.09754354 13.7504724 -7.83393163 15.08303419 -4 17 C-2.68 11.39 -1.36 5.78 0 0 Z " fill="#D3D3D4" transform="translate(91,48)"/>
<path d="" fill="#FFFFFF" transform="translate(0,0)"/>
<path d="" fill="#FFFFFF" transform="translate(0,0)"/>
<path d="" fill="#FFFFFF" transform="translate(0,0)"/>
<path d="" fill="#FFFFFF" transform="translate(0,0)"/>
<path d="" fill="#FFFFFF" transform="translate(0,0)"/>
<path d="" fill="#FFFFFF" transform="translate(0,0)"/>
<path d="" fill="#FFFFFF" transform="translate(0,0)"/>
<path d="" fill="#FFFFFF" transform="translate(0,0)"/>
<path d="" fill="#FFFFFF" transform="translate(0,0)"/>
<path d="" fill="#FFFFFF" transform="translate(0,0)"/>
<path d="" fill="#FFFFFF" transform="translate(0,0)"/>
<path d="" fill="#FFFFFF" transform="translate(0,0)"/>
<path d="" fill="#FFFFFF" transform="translate(0,0)"/>
<path d="" fill="#FFFFFF" transform="translate(0,0)"/>
<path d="" fill="#FFFFFF" transform="translate(0,0)"/>
<path d="" fill="#FFFFFF" transform="translate(0,0)"/>
</svg>
